<?xml version="1.0" encoding="UTF-8"?>
<!DOCTYPE svg PUBLIC "-//W3C//DTD SVG 1.1//EN" "http://www.w3.org/Graphics/SVG/1.1/DTD/svg11.dtd">
<svg version="1.1" xmlns="http://www.w3.org/2000/svg" xmlns:xlink="http://www.w3.org/1999/xlink" x="0" y="0" width="605" height="930" viewBox="0, 0, 605, 930">
  <defs>
    <linearGradient id="Gradient_1" gradientUnits="userSpaceOnUse" x1="345.419" y1="526.604" x2="400.633" y2="906.362">
      <stop offset="0" stop-color="#FEF4D9"/>
      <stop offset="0" stop-color="#FDDE88"/>
      <stop offset="0.551" stop-color="#F9C822"/>
      <stop offset="1" stop-color="#D8AA2E"/>
    </linearGradient>
  </defs>
  <g id="Layer_1">
    <path d="M17.67,265.525 C37.325,203.475 81.565,203.475 125.515,203.475 C169.425,203.475 186.035,215.925 186.035,255.035 C186.035,283.685 166.91,308.295 139.455,319.48 L181.905,399.86 C245.22,361.68 337.385,358.57 337.385,358.57 C337.385,358.57 433.835,361.855 497.115,402.605 C502.185,403.02 507.105,404.095 511.79,405.94 C556.09,423.38 568.1,499.985 541.205,581.615 C559.165,602.31 581.55,642.81 558.285,702.66 C523.1,793.66 508.275,777.26 499.485,806.58 C490.67,835.935 505.815,851.46 484.605,873.345 C470.835,887.44 441.305,891.56 413.325,890.065 C383.53,899.82 205.315,888.935 190.165,873.345 C168.845,851.46 184.015,835.935 175.225,806.58 C166.435,777.26 151.615,793.66 116.37,702.66 C93.785,644.335 114.405,604.42 132.105,583.27 C101.08,566.375 61.58,535.755 58.065,488.155 C53.85,431.255 40.315,369.115 43.39,329.6 C23.175,329.6 10.34,288.785 17.67,265.525" fill="#FFFFFE"/>
    <path d="M125.515,208.89 C82.185,208.89 41.225,208.89 22.82,267.165 C18.34,281.35 22.295,303.9 31.47,316.435 C34.07,319.985 38.235,324.225 43.39,324.225 C44.885,324.225 46.325,324.855 47.345,325.96 C48.345,327.05 48.87,328.545 48.75,330.04 C46.905,353.645 51.21,386.115 55.78,420.465 C58.715,442.595 61.76,465.53 63.43,487.77 C66.77,532.54 104.035,561.825 134.655,578.525 C136.115,579.295 137.08,580.67 137.43,582.25 C137.695,583.835 137.255,585.485 136.235,586.715 C117.865,608.705 100.375,646.345 121.38,700.73 C142.88,756.185 156.625,771.075 165.765,780.92 C171.885,787.51 176.72,792.73 180.41,805.075 C184.135,817.64 183.84,827.73 183.52,836.64 C183.135,849.085 182.815,858.085 194.035,869.585 C202.505,878.375 293.47,888.375 364.715,888.375 C396.39,888.375 407.73,886.21 411.655,884.945 C412.27,884.77 412.915,884.63 413.59,884.7 C417.045,884.86 420.53,884.965 423.99,884.965 C450.53,884.965 471.185,879.355 480.735,869.585 C491.9,858.085 491.575,849.105 491.195,836.64 C490.875,827.73 490.58,817.64 494.36,805.075 C497.995,792.73 502.885,787.51 508.95,780.92 C518.03,771.075 531.83,756.185 553.275,700.73 C574.78,645.29 556.355,607.3 537.105,585.15 C535.875,583.69 535.495,581.725 536.11,579.91 C562.035,501.16 550.465,426.95 509.86,410.95 C505.73,409.35 501.335,408.315 496.675,407.965 C495.795,407.875 494.975,407.61 494.215,407.12 C432.925,367.655 338.12,364 337.155,363.965 C336.625,364 246.01,367.48 184.715,404.47 C183.435,405.24 181.905,405.45 180.5,405.065 C179.04,404.66 177.86,403.69 177.16,402.375 L134.655,322.005 C133.95,320.655 133.86,319.07 134.39,317.63 C134.915,316.205 136.025,315.065 137.43,314.48 C163.655,303.835 180.62,280.47 180.62,255.035 C180.62,219.65 167.755,208.89 125.515,208.89 z M364.715,899.13 C309.905,899.13 200.36,891.57 186.245,877.07 C171.92,862.305 172.325,849.685 172.765,836.29 C173.06,827.815 173.325,819.03 170.075,808.165 C167.085,798.22 163.625,794.455 157.855,788.23 C148.19,777.81 133.6,762.02 111.36,704.63 C89.09,647.08 107.935,606.42 123.985,584.89 C92.17,566.45 56.165,535.44 52.705,488.56 C51.07,466.62 48.045,443.875 45.095,421.885 C40.75,389.245 36.655,358.305 37.71,334.225 C32.225,332.64 27.165,328.775 22.77,322.8 C11.66,307.625 7.09,281.225 12.575,263.91 C33.37,198.1 82.325,198.1 125.515,198.1 C173.555,198.1 191.395,213.55 191.395,255.035 C191.395,283.07 174.115,308.825 146.87,322.04 L184.05,392.355 C247.47,356.58 333.46,353.295 337.155,353.21 C341.515,353.33 435.12,356.935 498.93,397.33 C504.145,397.89 509.125,399.105 513.785,400.95 C560.015,419.125 574.165,495.975 547.21,580.44 C564.41,601.27 587.085,643.37 563.355,704.63 C541.12,762.02 526.53,777.81 516.86,788.23 C511.09,794.455 507.63,798.22 504.645,808.165 C501.39,819.03 501.655,827.815 501.95,836.29 C502.39,849.685 502.8,862.305 488.415,877.07 C472.65,893.33 441.305,895.755 423.99,895.755 C420.65,895.755 417.31,895.67 413.97,895.495 C405.59,897.955 389.01,899.13 364.715,899.13" fill="#1A1919"/>
    <path d="M151.845,590.02 C141.595,590.02 133.335,588.895 131.28,588.58 C128.325,588.16 126.355,585.38 126.795,582.46 C127.235,579.525 129.875,577.435 132.895,577.945 C145.165,579.755 178.95,581.58 188.355,568.225 C190.08,565.76 193.42,565.2 195.88,566.905 C198.285,568.575 198.9,571.97 197.195,574.41 C188.09,587.295 167.61,590.02 151.845,590.02" fill="#1A1919"/>
    <path d="M413.325,895.425 L413.235,895.425 C410.28,895.405 407.905,893 407.905,890.065 C407.905,889.165 408.14,880.5 416.315,860.545 C417.545,858.37 501.95,721.855 535.96,580.35 C536.665,577.45 539.45,575.64 542.465,576.36 C545.335,577.065 547.125,579.985 546.42,582.865 C512.025,726.075 426.715,864.06 425.835,865.435 C418.98,882.505 418.715,890.065 418.715,890.13 C418.63,893.065 416.225,895.425 413.325,895.425" fill="#1A1919"/>
    <path d="M70.315,261.625 C70.315,261.625 77.26,274.755 75.91,289.115 C74.5,303.46 70.315,318.755 70.315,318.755 C70.315,318.755 66.185,303.46 64.78,289.115 C63.375,274.755 70.315,261.625 70.315,261.625" fill="#AB2430"/>
    <path d="M43.035,261.625 C43.035,261.625 50.015,274.755 48.575,289.115 C47.2,303.46 43.035,318.755 43.035,318.755 C43.035,318.755 38.855,303.46 37.445,289.115 C36.095,274.755 43.035,261.625 43.035,261.625" fill="#AB2430"/>
    <path d="M255.38,830.75 C255.38,830.75 262.27,843.9 260.92,858.245 C259.51,872.59 255.38,887.88 255.38,887.88 C255.38,887.88 251.16,872.59 249.79,858.245 C248.385,843.9 255.38,830.75 255.38,830.75" fill="#AB2430"/>
    <path d="M234.585,830.75 C234.585,830.75 241.53,843.9 240.12,858.245 C238.715,872.59 234.585,887.88 234.585,887.88 C234.585,887.88 230.42,872.59 229.015,858.245 C227.605,843.9 234.585,830.75 234.585,830.75" fill="#AB2430"/>
    <path d="M213.81,830.75 C213.81,830.75 220.75,843.9 219.345,858.245 C217.975,872.59 213.81,887.88 213.81,887.88 C213.81,887.88 209.59,872.59 208.22,858.245 C206.865,843.9 213.81,830.75 213.81,830.75" fill="#AB2430"/>
    <path d="M463.86,824.04 C463.86,824.04 470.835,837.24 469.43,851.58 C468.02,865.875 463.86,881.185 463.86,881.185 C463.86,881.185 459.73,865.875 458.325,851.58 C456.92,837.24 463.86,824.04 463.86,824.04" fill="#AB2430"/>
    <path d="M443.12,830.575 C443.12,830.575 450.065,843.745 448.655,858.085 C447.28,872.41 443.12,887.705 443.12,887.705 C443.12,887.705 438.93,872.41 437.525,858.085 C436.175,843.745 443.12,830.575 443.12,830.575" fill="#AB2430"/>
    <path d="M78.845,337.335 L78.405,337.3 C58.015,335.575 43.3,335.015 43.16,335.015 C40.225,334.875 37.885,332.395 37.975,329.425 C38.115,326.435 40.75,324.29 43.565,324.225 C43.685,324.24 58.63,324.82 79.28,326.575 C82.235,326.84 84.435,329.445 84.205,332.395 C83.94,335.21 81.62,337.335 78.845,337.335" fill="#1A1919"/>
    <path d="M91.85,449.45 C113.35,449.45 130.785,428.285 130.785,402.32 C130.785,376.355 113.35,355.21 91.85,355.21 C70.405,355.21 52.97,376.355 52.97,402.32 C52.97,428.285 70.405,449.45 91.85,449.45" fill="#BBAE92"/>
    <path d="M67.33,402.32 C67.33,419.97 78.315,434.265 91.85,434.265 C105.44,434.265 116.37,419.97 116.37,402.32 C116.37,384.675 105.44,370.38 91.85,370.38 C78.315,370.38 67.33,384.675 67.33,402.32" fill="#1A1919"/>
    <path d="M144.465,730.085 C144.465,755.34 164.89,775.805 190.165,775.805 C215.39,775.805 235.87,755.34 235.87,730.085 C235.87,704.86 215.39,684.4 190.165,684.4 C164.89,684.4 144.465,704.86 144.465,730.085" fill="#BBAE92"/>
    <path d="M158.47,730.085 C158.47,747.595 172.62,761.76 190.165,761.76 C207.655,761.76 221.805,747.595 221.805,730.085 C221.805,712.61 207.655,698.44 190.165,698.44 C172.62,698.44 158.47,712.61 158.47,730.085" fill="#1A1919"/>
    <path d="M125.515,430.29 C125.515,457.095 158.03,560.365 337.24,560.365 C514.165,560.365 558.11,457.095 558.11,430.29 L558.11,411.46 C558.11,384.675 538.835,362.965 515.015,362.965 L168.635,362.965 C144.815,362.965 125.515,384.675 125.515,411.46 L125.515,430.29" fill="#AB2430"/>
    <path d="M168.635,368.325 C147.835,368.325 130.875,387.695 130.875,411.46 L130.875,430.29 C130.875,462.65 168.81,554.97 337.24,554.97 C515.31,554.97 552.75,450.8 552.75,430.29 L552.75,411.46 C552.75,387.695 535.845,368.325 515.015,368.325 L168.635,368.325 z M337.24,565.745 C160.02,565.745 120.115,465.445 120.115,430.29 L120.115,411.46 C120.115,381.72 141.86,357.55 168.635,357.55 L515.015,357.55 C541.765,357.55 563.53,381.72 563.53,411.46 L563.53,430.29 C563.53,466.445 509.86,565.745 337.24,565.745" fill="#1A1919"/>
    <path d="M99.2,258.67 C99.2,258.67 104.945,39.35 145.34,19.42 C182.555,1.085 236.08,46.91 273.345,87.075 C295.14,80.835 318.08,77.405 341.81,77.405 C365.54,77.405 388.54,80.835 410.28,87.075 C447.545,46.91 501.07,1.085 538.305,19.42 C578.675,39.35 584.45,258.67 584.45,258.67 C584.27,258.705 591.745,296.165 591.745,315.45 C591.745,439.375 479.86,495.345 341.81,495.345 C203.79,495.345 91.85,439.375 91.85,315.45 C91.85,296.165 99.375,258.705 99.2,258.67" fill="#FFFFFE"/>
    <path d="M119.5,336.175 C119.5,375.2 151.145,406.82 190.165,406.82 C229.135,406.82 260.775,375.2 260.775,336.175 C260.775,297.155 229.135,265.525 190.165,265.525 C151.145,265.525 119.5,297.155 119.5,336.175" fill="#EB969C"/>
    <path d="M422.845,336.175 C422.845,375.2 454.485,406.82 493.51,406.82 C532.505,406.82 564.145,375.2 564.145,336.175 C564.145,297.155 532.505,265.525 493.51,265.525 C454.485,265.525 422.845,297.155 422.845,336.175" fill="#EB969C"/>
    <path d="M501.565,260.13 C501.565,287.06 479.71,308.98 452.73,308.98 C425.745,308.98 403.92,287.06 403.92,260.13 C403.92,233.15 425.745,211.285 452.73,211.285 C479.71,211.285 501.565,233.15 501.565,260.13" fill="#1A1919"/>
    <path d="M495.18,260.13 C495.18,283.545 476.195,302.585 452.73,302.585 C429.265,302.585 410.25,283.545 410.25,260.13 C410.25,236.665 429.265,217.625 452.73,217.625 C476.195,217.625 495.18,236.665 495.18,260.13" fill="#FEDA2E"/>
    <path d="M482.79,260.13 C482.79,276.745 469.31,290.19 452.73,290.19 C436.12,290.19 422.67,276.745 422.67,260.13 C422.67,243.485 436.12,230.075 452.73,230.075 C469.31,230.075 482.79,243.485 482.79,260.13" fill="#1A1919"/>
    <path d="M458.355,252.785 C458.355,258.9 453.435,263.825 447.37,263.825 C441.275,263.825 436.355,258.9 436.355,252.785 C436.355,246.755 441.275,241.795 447.37,241.795 C453.435,241.795 458.355,246.755 458.355,252.785" fill="#FFFFFE"/>
    <path d="M182.115,260.13 C182.115,287.06 203.965,308.98 230.895,308.98 C257.875,308.98 279.76,287.06 279.76,260.13 C279.76,233.15 257.875,211.285 230.895,211.285 C203.965,211.285 182.115,233.15 182.115,260.13" fill="#1A1919"/>
    <path d="M188.44,260.13 C188.44,283.545 207.48,302.585 230.895,302.585 C254.36,302.585 273.4,283.545 273.4,260.13 C273.4,236.665 254.36,217.625 230.895,217.625 C207.48,217.625 188.44,236.665 188.44,260.13" fill="#FEDA2E"/>
    <path d="M200.89,260.13 C200.89,276.745 214.335,290.19 230.895,290.19 C247.505,290.19 261.005,276.745 261.005,260.13 C261.005,243.485 247.505,230.075 230.895,230.075 C214.335,230.075 200.89,243.485 200.89,260.13" fill="#1A1919"/>
    <path d="M225.32,252.785 C225.32,258.9 230.19,263.825 236.31,263.825 C242.375,263.825 247.33,258.9 247.33,252.785 C247.33,246.755 242.375,241.795 236.31,241.795 C230.19,241.795 225.32,246.755 225.32,252.785" fill="#FFFFFE"/>
    <path d="M157.065,42.46 C160.845,41.02 165.03,40.265 169.425,40.265 C199.78,40.265 236.255,74.805 245.185,89.555 C245.745,90.505 245.8,91.645 245.395,92.7 C244.92,93.685 244.045,94.425 242.935,94.67 C242.11,94.845 158.295,113.475 134.04,168.02 C133.475,169.285 132.19,170.045 130.875,170.045 L130.225,169.99 C128.645,169.66 127.5,168.32 127.445,166.705 C127.235,155.28 126.005,54.4 157.065,42.46" fill="#AB2430"/>
    <path d="M526.615,42.46 C522.78,41.02 518.62,40.265 514.225,40.265 C483.845,40.265 447.37,74.805 438.49,89.555 C437.935,90.505 437.845,91.645 438.285,92.7 C438.725,93.685 439.605,94.425 440.69,94.67 C441.54,94.845 525.325,113.475 549.645,168.02 C550.2,169.285 551.43,170.045 552.75,170.045 L553.425,169.99 C555.005,169.66 556.175,168.32 556.175,166.705 C556.41,155.28 557.64,54.4 526.615,42.46" fill="#AB2430"/>
    <path d="M336.415,319.72 L347.225,319.72 L347.225,376.655 L336.415,376.655 z" fill="#AB2430"/>
    <path d="M364.455,401.145 C358.95,401.145 353.465,400.075 348.72,397.175 C345.94,395.485 343.655,393.32 341.81,390.65 C339.965,393.32 337.68,395.485 334.92,397.175 C317.96,407.61 291.01,394.375 287.99,392.845 C285.385,391.475 284.33,388.255 285.65,385.585 C287.02,382.95 290.275,381.895 292.91,383.23 C299.59,386.64 319.225,394.13 329.295,387.96 C334.045,385.095 336.415,378.96 336.415,369.765 C336.415,366.81 338.825,364.405 341.81,364.405 C344.8,364.405 347.225,366.81 347.225,369.765 C347.225,378.96 349.6,385.095 354.345,387.96 C364.4,394.13 384,386.64 390.735,383.23 C393.405,381.895 396.625,382.95 397.975,385.585 C399.35,388.255 398.295,391.475 395.66,392.845 C393.46,393.935 378.815,401.145 364.455,401.145" fill="#AB2430"/>
    <path d="M324.725,319.72 C324.725,329.16 332.375,336.86 341.81,336.86 C351.27,336.86 358.95,329.16 358.95,319.72 C358.95,310.265 351.27,302.585 341.81,302.585 C332.375,302.585 324.725,310.265 324.725,319.72" fill="#1A1919"/>
    <path d="M206.69,337.335 C199.165,337.335 158.44,336.245 144.495,312.745 C142.97,310.175 143.795,306.89 146.345,305.395 C148.89,303.85 152.23,304.69 153.78,307.26 C163.625,323.855 195.79,326.875 207.605,326.56 L207.69,326.56 C210.645,326.56 213.05,328.88 213.105,331.85 C213.14,334.82 210.765,337.28 207.83,337.335 C207.69,337.335 207.25,337.335 206.69,337.335" fill="#1A1919"/>
    <path d="M184.715,396.925 C172.94,396.925 158.56,394.285 144.145,385.025 C141.65,383.39 140.895,380.05 142.53,377.555 C144.145,375.04 147.45,374.335 150,375.92 C178.425,394.2 206.46,382.6 207.655,382.07 C210.415,380.945 213.545,382.18 214.69,384.935 C215.865,387.66 214.635,390.79 211.91,391.97 C211.12,392.32 200.13,396.925 184.715,396.925" fill="#1A1919"/>
    <path d="M191.31,366.6 C169.895,366.6 133.565,362.91 111.625,340.31 C109.57,338.18 109.66,334.75 111.77,332.675 C113.91,330.62 117.34,330.675 119.415,332.815 C147.45,361.77 206.46,355.14 207.075,355.075 C210.115,354.615 212.7,356.845 213.05,359.745 C213.405,362.735 211.295,365.425 208.36,365.775 C207.515,365.865 200.925,366.6 191.31,366.6" fill="#1A1919"/>
    <path d="M476.96,337.335 C476.345,337.335 475.935,337.335 475.815,337.335 C472.855,337.28 470.485,334.82 470.57,331.85 C470.63,328.86 473.03,326.7 476.08,326.56 C476.55,326.575 518.03,327.225 529.895,307.26 C531.45,304.69 534.73,303.85 537.28,305.395 C539.83,306.89 540.71,310.175 539.185,312.745 C525.24,336.245 484.515,337.335 476.96,337.335" fill="#1A1919"/>
    <path d="M498.96,396.925 C483.49,396.925 472.565,392.32 471.77,391.97 C468.99,390.79 467.76,387.66 468.9,384.935 C470.105,382.18 473.265,380.93 475.99,382.07 C477.165,382.6 505.26,394.235 533.675,375.92 C536.195,374.3 539.535,375.04 541.12,377.555 C542.73,380.05 542.025,383.39 539.535,385.025 C525.065,394.285 510.71,396.925 498.96,396.925" fill="#1A1919"/>
    <path d="M492.34,366.6 C482.7,366.6 476.11,365.865 475.315,365.775 C472.33,365.425 470.22,362.735 470.57,359.745 C470.925,356.845 473.56,354.65 476.605,355.075 C477.165,355.14 536.225,361.77 564.265,332.815 C566.345,330.675 569.77,330.62 571.88,332.675 C574.02,334.75 574.075,338.18 571.995,340.31 C550.11,362.91 513.725,366.6 492.34,366.6" fill="#1A1919"/>
    <path d="M274.135,85.775 C295.67,79.69 318.345,76.355 341.81,76.355 C365.28,76.355 388.015,79.69 409.545,85.775 C403.395,134.13 376.32,166.56 341.81,166.56 C307.36,166.56 280.255,134.13 274.135,85.775" fill="#BBAE92"/>
    <path d="M341.81,76.355 C359.53,76.355 376.705,78.57 393.14,82.625 C388.22,124.43 367.125,149.915 341.81,149.915 C316.555,149.915 295.46,124.43 290.485,82.625 C306.92,78.57 324.11,76.355 341.81,76.355" fill="#1A1919"/>
    <path d="M104.475,258.815 C104.475,260.13 104.21,261.52 103.98,262.715 C102.31,271.945 97.265,299.98 97.265,315.45 C97.265,424.715 188.705,489.965 341.81,489.965 C494.975,489.965 586.38,424.715 586.38,315.45 C586.38,300.19 581.37,272.205 579.73,263.065 C579.47,261.715 579.205,260.185 579.175,258.815 L579.03,258.815 C576.8,171.925 563.44,37.805 535.935,24.235 C509.04,11.05 466.175,34.78 414.235,90.73 C412.885,92.205 410.775,92.82 408.845,92.24 C364.84,79.66 318.75,79.66 274.84,92.24 C272.87,92.82 270.795,92.205 269.39,90.73 C217.445,34.78 174.61,11.05 147.715,24.235 C120.24,37.805 106.88,171.925 104.595,258.815 L104.475,258.815 z M341.81,500.725 C184.31,500.725 86.49,429.74 86.49,315.45 C86.49,299.015 91.675,270.275 93.4,260.815 L93.87,258.22 C94.485,234.03 101.045,35.24 142.97,14.6 C174.205,-0.85 219.47,21.77 275.07,80.99 C318.87,69.06 364.715,69.06 408.61,80.99 C464.215,21.77 509.48,-0.85 540.71,14.6 C582.63,35.255 589.195,234.325 589.81,258.25 C589.895,258.76 590.075,259.78 590.335,261.165 C592.185,271.56 597.135,299.245 597.135,315.45 C597.135,429.74 499.31,500.725 341.81,500.725" fill="#1A1919"/>
    <path d="M301.03,902.085 C246.185,888.055 212.965,831.98 226.99,777.125 L274.4,591.655 C288.43,536.81 344.5,503.59 399.35,517.585 L444.73,529.2 C499.635,543.23 532.855,599.27 518.795,654.165 L471.42,839.595 C457.39,894.46 401.315,927.695 346.47,913.685 L301.03,902.085 z" fill="url(#Gradient_1)"/>
    <path d="M373.945,519.76 C329.42,519.76 290.66,549.875 279.64,593.01 L232.21,778.455 C225.76,803.595 229.54,829.75 242.815,852.165 C256.12,874.52 277.265,890.43 302.4,896.845 L347.84,908.445 C355.7,910.47 363.84,911.49 371.925,911.49 C416.4,911.49 455.16,881.375 466.175,838.255 L513.61,652.825 C520.025,627.69 516.245,601.5 503.005,579.12 C489.73,556.71 468.61,540.855 443.415,534.405 L397.975,522.805 C390.12,520.815 382.03,519.76 373.945,519.76 z M371.925,922.28 C362.905,922.28 353.905,921.105 345.15,918.905 L299.71,907.29 C271.765,900.15 248.295,882.52 233.585,857.645 C218.82,832.775 214.635,803.7 221.755,775.785 L269.18,590.335 C281.43,542.435 324.495,508.985 373.945,508.985 C382.91,508.985 391.91,510.125 400.67,512.38 L446.11,524 C474,531.12 497.525,548.765 512.29,573.585 C526.995,598.455 531.185,627.55 524.01,655.465 L476.635,840.935 C464.39,888.835 421.325,922.28 371.925,922.28" fill="#1A1919"/>
    <path d="M373.715,534.405 C335.925,534.405 303.02,559.995 293.7,596.595 L246.275,782.025 C240.825,803.42 243.99,825.655 255.24,844.64 C266.49,863.675 284.475,877.145 305.865,882.575 L351.27,894.175 C358.035,895.935 364.925,896.79 371.835,896.79 C409.575,896.79 442.505,871.235 451.82,834.585 L499.225,649.135 C510.53,605.015 483.755,559.875 439.635,548.59 L394.255,536.985 C387.515,535.265 380.57,534.405 373.715,534.405 z M371.835,907.57 C364.015,907.57 356.225,906.565 348.635,904.635 L303.195,893.03 C279.025,886.825 258.72,871.62 246.01,850.14 C233.265,828.695 229.665,803.56 235.87,779.335 L283.24,593.94 C293.825,552.545 331.055,523.645 373.715,523.645 C381.505,523.645 389.33,524.615 396.89,526.56 L442.33,538.15 C492.19,550.91 522.425,601.885 509.685,651.805 L462.28,837.255 C451.675,878.65 414.47,907.57 371.835,907.57" fill="#1A1919"/>
    <path d="M402.075,653.62 L382.47,648.025 L361.905,645.92 L342.605,639.17 L323.005,633.58 L304.16,625.44 L284.295,621.45 L287.145,607.18 L307.27,614.455 L326.66,620.745 L346.875,624.12 L365.245,633.93 L384.935,639.27 L404.975,643.18 L402.545,656.165 L402.075,653.62" fill="#1A1919"/>
    <path d="M364.665,787.16 L345.115,781.62 L324.55,779.51 L305.25,772.8 L285.65,767.175 L266.755,759.035 L246.89,754.99 L249.79,740.75 L269.885,748.045 L289.305,754.305 L309.52,757.68 L327.89,767.49 L347.58,772.865 L367.615,776.77 L365.19,789.76 L364.665,787.16" fill="#1A1919"/>
    <path d="M416.93,708.055 L395.485,705.155 L376.265,695.105 L356.19,687.84 L334.92,684.52 L314.97,676.68 L293.79,672.975 L274.575,664.64 L278.145,654.515 L297.865,659.44 L318.87,663.55 L338.525,672.195 L359.565,676.295 L379.835,683.01 L400.755,687.685 L418.45,697.825 L414.145,707.865 L416.93,708.055" fill="#1A1919"/>
    <path d="M439.81,758.68 L419.595,753.355 L398.56,750.825 L378.165,746.08 L359.565,735.18 L337.82,735.025 L319.1,724.46 L298.27,721.14 L279.285,711.31 L257.225,709.605 L262.5,697.915 L281.75,702.66 L301.47,709.69 L322.705,711.645 L341.55,721.735 L363.135,722.37 L381.68,733.51 L401.725,739.61 L423.285,740.49 L442.185,749.065 L442.505,762.285 L439.81,758.68" fill="#1A1919"/>
    <path d="M446.81,852.34 L426.54,846.98 L405.53,844.465 L385.11,839.7 L366.51,828.82 L344.765,828.645 L326.045,818.095 L305.215,814.755 L286.265,804.965 L264.17,803.24 L269.48,791.54 L288.725,796.3 L308.465,803.33 L329.685,805.285 L348.49,815.335 L370.08,816.04 L388.655,827.135 L408.665,833.265 L430.23,834.145 L449.125,842.67 L449.45,855.89 L446.81,852.34" fill="#1A1919"/>
    <path d="M258.81,826.305 L272.815,834.62 L289.955,833.035 L303.315,843.55 L319.84,843.935 L333.165,854.71 L349.95,854.115 L365.155,858.79 L378.11,870.62 L394.195,872.395 L410.16,874.665 L425.365,879.41 L422.495,888.055 L405.59,889.305 L391.03,882.695 L375.965,877.63 L361.815,869.655 L347.525,862.04 L331.145,861.305 L315.32,858.47 L299.065,857.35 L286.495,844.235 L271.41,839.245 L256.295,834.235 L241.53,831.79 L244.395,823.105 L258.81,826.305" fill="#1A1919"/>
    <path d="M314.48,576.1 L328.54,584.43 L345.68,582.845 L359.04,593.36 L375.56,593.71 L388.835,604.505 L405.68,603.905 L420.825,608.62 L433.835,620.395 L449.915,622.185 L465.885,624.44 L481.09,629.185 L478.275,637.83 L461.315,639.06 L446.755,632.525 L431.695,627.375 L417.485,619.465 L403.245,611.85 L386.81,611.1 L371.08,608.265 L354.785,607.125 L342.215,594.03 L327.135,589.055 L312.015,584.03 L297.25,581.58 L300.065,572.88 L314.48,576.1" fill="#1A1919"/>
    <path d="M553.365,564.64 C546.335,594.82 510.475,597.19 475.2,578.315 C439.87,559.435 408.255,544.315 415.26,521.78 C424.485,492.195 484.105,471.825 519.41,490.735 C554.74,509.565 560.925,532.24 553.365,564.64" fill="#FFFFFE"/>
    <path d="M487.185,488.825 C457.36,488.825 426.155,504.975 420.385,523.365 C415.11,540.325 441.185,554.145 471.335,570.155 L477.75,573.57 C491.49,580.935 505.64,584.995 517.565,584.995 C529.165,584.995 543.96,581.23 548.15,563.41 C554.685,535.265 551.755,514.08 516.89,495.485 C508.715,491.11 498.435,488.825 487.185,488.825 z M517.565,595.75 C503.705,595.75 488.15,591.355 472.65,583.06 L466.265,579.7 C431.9,561.42 402.19,545.62 410.105,520.2 C417.37,496.945 451.94,478.03 487.185,478.03 C500.19,478.03 512.23,480.77 521.96,485.955 C556.85,504.625 567.515,527.76 558.61,565.85 C554.155,584.855 539.215,595.75 517.565,595.75" fill="#1A1919"/>
    <path d="M494.71,519.495 C494.71,519.495 495.505,534.635 488.06,547.305 C480.59,559.995 470.22,572.355 470.22,572.355 C470.22,572.355 472.915,556.41 477.78,542.545 C482.61,528.67 494.71,519.495 494.71,519.495" fill="#AB2430"/>
    <path d="M516.8,528.43 C516.8,528.43 517.595,543.615 510.18,556.27 C502.74,568.925 492.34,581.32 492.34,581.32 C492.34,581.32 495.005,565.375 499.84,551.525 C504.73,537.635 516.8,528.43 516.8,528.43" fill="#AB2430"/>
    <path d="M473.645,508.07 C473.645,508.07 474.44,523.225 467.025,535.935 C459.585,548.57 449.185,560.945 449.185,560.945 C449.185,560.945 451.85,544.985 456.685,531.135 C461.575,517.245 473.645,508.07 473.645,508.07" fill="#AB2430"/>
    <path d="M429.265,601.83 C432.135,602.22 434.89,602.73 437.61,603.29 L437.79,603.255 L437.085,602.995 C435.765,602.575 434.45,602.22 433.13,601.96 C430.55,601.535 427.825,601.18 425.13,600.99 L425.13,601.145 C426.54,601.355 427.915,601.585 429.265,601.83 z M391.175,672.57 C389.71,672.57 388.22,672.425 386.78,672.075 C384.145,671.32 382.03,670.23 380.22,668.7 C378.34,667.275 376.67,665.36 375.385,663.2 C374.385,661.825 373.33,659.945 372.485,658.08 C371.485,655.2 370.99,652.565 370.955,649.895 C370.905,647.15 371.52,644.335 372.75,641.665 L377.46,630.13 L370.025,629.835 C367,629.78 363.87,629.15 360.885,628.04 C358.035,626.97 355.315,625.58 352.8,623.91 C350.04,621.8 347.755,619.55 345.765,617 C343.92,614.595 342.34,611.87 341.16,608.97 C340.58,607.42 340.495,606.015 340.755,604.695 C341.02,603.17 341.775,601.73 342.955,600.565 C343.92,599.675 345.065,599.04 346.295,598.635 C346.82,598.44 348.37,598.245 348.93,598.245 L350.16,598.315 C351.445,598.455 352.59,598.72 353.59,599.04 C354.205,599.215 354.875,599.39 355.52,599.62 C361.64,598.915 367.915,598.51 374.21,598.335 C376.88,598.245 379.57,598.195 382.295,598.195 L383.12,598.195 L382.91,598.16 C379.745,597.28 376.79,596.105 374.065,594.75 C371.345,593.5 368.585,591.92 366.035,590.005 C363.66,588.405 361.235,586.33 359.125,584.03 C357.6,582.215 356.63,580.175 356.49,578.03 C356.315,575.715 357.015,573.46 358.51,571.53 L360.095,569.715 C361.235,568.485 362.605,567.575 364.19,566.96 C364.805,566.73 366.155,566.555 366.825,566.555 C368.005,566.555 369.2,566.78 370.375,567.22 C372.31,567.87 374.385,568.45 376.44,568.84 C377.99,569.065 379.745,569.245 381.505,569.245 C391.38,568.98 400.58,568.84 409.84,568.84 L417.31,568.785 C423.99,568.785 430.67,568.89 437.405,569.065 C439.195,569.1 441.01,569.365 442.71,569.88 C444.88,570.495 446.575,571.245 447.985,572.195 C453.17,575.22 457.885,579.155 461.665,583.745 C465.445,588.405 468.255,593.5 470.045,598.95 L470.31,600.25 C470.455,602.36 469.955,604.4 468.87,606.105 C468.435,607.07 466.88,609.06 463.805,610.11 C461.665,610.5 460.465,610.585 459.38,610.585 C457.885,610.585 456.42,610.465 455.015,610.2 L454.665,610.13 C456.07,611.905 457.445,613.805 458.765,615.735 C460.905,619.025 462.75,622.435 464.33,625.865 C465.445,628.04 465.97,630.52 465.915,633.07 C465.97,635.125 465.56,637.465 464.685,639.665 C463.6,641.875 461.695,644.27 457.74,645.305 C456.685,645.62 455.515,645.795 454.31,645.795 C452.7,645.795 451.06,645.445 449.565,644.795 C446.84,643.635 444.175,642.315 441.54,640.875 C439.02,639.59 436.615,638.185 434.33,636.745 C433.395,636.305 432.34,635.81 431.285,635.425 C430.23,635.075 429.145,634.81 428.03,634.67 L416.84,633.07 L410.335,657.695 C409.105,661.475 407.115,664.55 404.3,667.155 C401.315,669.685 397.945,671.39 394.105,672.34 C392.67,672.55 391.91,672.57 391.175,672.57" fill="#E6B725"/>
    <path d="M384.35,592.975 C381.54,592.185 378.9,591.16 376.44,589.93 C373.89,588.755 371.52,587.35 369.235,585.68 C367,584.15 364.925,582.375 363.135,580.405 C362.38,579.525 361.94,578.595 361.85,577.625 C361.765,576.625 362.115,575.715 362.785,574.815 L364.135,573.32 C364.665,572.76 365.28,572.32 366.07,572 C366.825,571.845 367.615,571.95 368.495,572.265 C370.815,573.055 373.155,573.725 375.44,574.13 C377.725,574.465 380.045,574.64 382.415,574.605 C391.53,574.34 400.67,574.2 409.84,574.2 C418.98,574.11 428.12,574.2 437.23,574.465 C438.64,574.465 439.955,574.66 441.215,575.045 C442.77,575.505 444.03,576.045 444.965,576.66 C449.915,579.545 454.105,583.06 457.475,587.19 C460.815,591.305 463.335,595.785 464.915,600.64 C465.005,601.605 464.77,602.465 464.33,603.205 C463.89,604.05 463.16,604.645 462.105,605.015 C459.995,605.28 457.915,605.245 455.95,604.895 C453.755,604.54 451.675,603.96 449.74,603.115 L443.12,599.675 C441.83,599.02 440.395,598.425 438.755,597.895 C437.26,597.37 435.735,596.965 434.155,596.665 C431.08,596.14 428.005,595.785 425.015,595.61 C422.025,595.295 418.98,595.225 415.905,595.28 L418.16,597.915 C418.89,598.565 419.39,599.39 419.565,600.305 C419.83,601.255 419.83,602.15 419.565,603.06 L418.775,605.805 C422.025,606.125 425.22,606.595 428.385,607.125 C431.635,607.6 434.86,608.2 437.875,608.83 L440.485,608.035 C441.715,607.65 443.06,607.685 444.525,608.125 C445.67,608.44 446.665,609.09 447.515,610.06 C449.975,612.75 452.2,615.615 454.225,618.705 C456.215,621.75 457.975,624.895 459.41,628.13 C460.2,629.645 460.55,631.24 460.55,632.91 C460.61,634.545 460.29,636.13 459.73,637.62 C459.115,638.855 458.005,639.665 456.39,640.085 C454.75,640.555 453.17,640.505 451.735,639.875 C449.125,638.765 446.575,637.535 444.115,636.16 C441.655,634.845 439.34,633.525 437.145,632.175 C435.735,631.415 434.36,630.8 433.04,630.325 C431.605,629.835 430.2,629.5 428.735,629.305 L412.825,627.075 L405.095,656.345 C404.27,658.925 402.78,661.21 400.67,663.18 C398.47,665.045 395.835,666.36 392.79,667.1 C391.205,667.275 389.595,667.185 388.04,666.835 C386.37,666.36 384.88,665.605 383.705,664.605 C382.205,663.43 380.975,662.055 380.045,660.475 C378.955,658.98 378.11,657.52 377.495,656.01 C376.76,653.97 376.405,651.895 376.355,649.84 C376.32,647.85 376.76,645.885 377.635,643.95 L385.315,625.035 L370.255,624.44 C367.705,624.385 365.245,623.91 362.785,622.965 C360.27,622.01 357.895,620.855 355.785,619.43 C353.645,617.795 351.745,615.86 350.075,613.715 C348.49,611.64 347.14,609.39 346.12,606.86 L346.085,605.65 L346.645,604.505 C346.995,604.155 347.435,603.905 347.93,603.73 C348.405,603.61 348.93,603.555 349.425,603.645 C350.425,603.785 351.305,603.96 352.15,604.225 C353.025,604.435 353.94,604.75 354.905,605.12 C361.235,604.345 367.705,603.89 374.33,603.73 C380.975,603.52 387.575,603.555 394.105,603.905 L395.22,601.48 C394.37,600.39 393.755,599.3 393.405,598.105 C393.14,596.93 392.965,595.75 392.79,594.645 C389.945,594.325 387.135,593.765 384.35,592.975" fill="#1A1919"/>
    <path d="M361.94,745.73 C365.685,746.99 369.465,748.4 373.24,749.86 C375.825,746.99 378.285,744.09 380.625,741.125 C381.855,739.575 383.03,737.995 384.175,736.375 C381.065,736.095 378.515,735.55 376.055,734.775 C373.015,733.72 370.34,732.455 367.97,730.895 L367.65,730.7 C365.455,733.195 363.225,735.71 360.94,738.17 C359.215,739.96 357.42,741.805 355.61,743.565 C357.72,744.27 359.83,744.97 361.94,745.73 z M391.44,784.61 C389.505,784.61 387.485,784.42 385.465,783.98 C382.735,783.38 380.275,782.485 378.11,781.325 C375.21,779.74 372.625,777.84 370.34,775.75 C368.145,773.59 366.3,771.34 364.63,768.965 C364.05,768.12 363.66,767.63 363.225,767.24 C362.52,766.735 361.64,766.15 360.76,765.68 C357.245,763.78 353.555,761.81 349.81,759.79 C347.26,758.45 344.68,757.185 341.955,755.925 C340.46,757.12 338.825,758.155 337.12,759.035 C334.165,760.635 330.825,761.745 327.275,762.215 L325.52,762.36 C324.32,762.36 323.18,762.195 322.09,761.865 C320.19,761.32 318.575,760.495 317.2,759.33 C314.445,756.54 312.105,753.935 309.96,751.21 C307.885,748.84 305.775,746.275 303.665,743.565 C302.14,741.28 301.785,738.94 302.435,736.605 C303.05,734.39 304.6,732.61 306.795,731.63 C315.27,727.885 323.23,723.405 330.475,718.305 C337.205,713.295 343.445,707.53 348.93,701.29 C348.195,701.08 347.435,700.795 346.735,700.52 C343.8,699.355 341.16,698.005 338.735,696.475 C335.57,694.61 332.635,692.235 330.175,689.6 C327.54,686.525 325.64,683.36 324.41,680.075 C323.355,677.47 323.705,674.57 325.465,672.34 C327.135,670.265 329.295,669.12 331.76,668.91 C334.13,668.945 335.89,669.295 337.56,669.895 C339.055,670.44 340.405,671.055 341.69,671.81 L342.955,677.47 L343.01,672.095 C354.96,672.165 367.035,672.71 378.955,673.69 C390.415,674.57 402.165,675.855 413.705,677.47 L414.995,677.175 C416.255,676.56 417.66,676.26 419.065,676.26 C419.915,676.26 420.795,676.38 421.615,676.59 C424.05,677.12 426.155,678.425 427.68,680.335 C430.67,684.31 433.395,688.16 435.94,692.025 C438.58,695.915 441.1,699.915 443.415,703.98 C444.615,705.86 445.085,708.145 444.79,710.52 C444.47,712.61 443.735,714.525 442.415,716.145 C441.185,717.635 439.515,718.69 437.585,719.36 C436.38,719.71 435.21,719.905 433.92,719.905 L432.25,719.8 C430.055,719.29 428.09,718.745 426.275,718.095 C430.23,723.405 432.835,729.29 433.98,735.445 C434.595,737.235 434.095,739.685 432.515,741.545 C431.81,742.6 430.55,743.88 428.44,744.62 L427.39,745.395 C424.75,751.56 422.115,757.01 419.125,762.165 C415.99,767.525 412.3,772.62 408.23,777.28 C406.325,779.425 404.095,781.13 401.49,782.36 C399.205,783.59 396.305,784.4 393.23,784.575 C392.67,784.61 392.055,784.61 391.44,784.61" fill="#E6B725"/>
    <path d="M356.98,734.48 C353.325,738.38 349.46,742.125 345.325,745.795 C350.305,747.43 355.225,749.085 360.18,750.79 C364.98,752.475 369.815,754.255 374.685,756.165 C378.285,752.44 381.68,748.54 384.85,744.445 C388.13,740.31 391.09,736.095 393.64,731.665 C392.175,731.49 390.765,731.315 389.33,731.225 C388.015,731.14 386.635,731.105 385.14,731.105 C382.645,730.91 380.185,730.435 377.67,729.645 C375.21,728.765 372.925,727.71 370.87,726.355 C370.08,725.775 369.41,725.18 368.88,724.58 C368.44,723.95 368.005,723.26 367.65,722.47 C364.19,726.565 360.675,730.54 356.98,734.48 z M348.58,695.455 C346.085,694.435 343.745,693.255 341.6,691.94 C338.735,690.215 336.275,688.215 334.13,685.91 C332.02,683.5 330.475,680.95 329.475,678.23 C329.065,677.24 329.12,676.38 329.685,675.66 C330.385,674.835 331.23,674.36 332.195,674.27 C333.375,674.36 334.605,674.555 335.8,674.975 C336.89,675.36 337.945,675.855 338.965,676.415 C339.615,676.77 340.315,676.995 340.985,677.105 C341.69,677.315 342.395,677.455 342.955,677.47 C354.785,677.56 366.595,678.07 378.515,679.055 C390.415,679.985 402.25,681.305 414.03,682.94 L416.87,682.235 C417.895,681.655 419.065,681.515 420.385,681.83 C421.705,682.115 422.76,682.745 423.52,683.71 C426.335,687.455 428.97,691.18 431.46,695.015 C434.01,698.815 436.47,702.695 438.755,706.65 C439.34,707.615 439.605,708.705 439.43,709.815 C439.28,710.955 438.845,711.925 438.2,712.77 C437.67,713.42 436.91,713.91 435.94,714.195 C434.975,714.525 433.98,714.615 432.955,714.475 C430.29,713.825 427.74,712.98 425.31,711.925 C422.905,710.87 420.56,709.515 418.335,707.845 C414.76,705.945 411.07,704.505 407.26,703.47 C403.335,702.345 399.44,701.695 395.425,701.52 C392.055,701.2 388.63,700.85 385.23,700.465 C381.8,700.145 378.43,699.85 375.035,699.495 C376.145,701.145 376.845,702.855 377.23,704.665 C377.495,706.475 377.285,708.2 376.67,709.78 L389.945,709.815 L403.335,710.255 L404.3,709.11 C404.975,708.64 405.68,708.355 406.38,708.285 C407.26,708.22 408.05,708.46 408.845,708.955 C414.03,712.365 418.425,716.46 421.88,721.15 C425.395,725.95 427.65,731.03 428.645,736.41 C428.88,737.15 428.735,737.765 428.265,738.29 C427.915,738.84 427.39,739.29 426.54,739.575 C425.485,740.015 424.575,740.575 423.87,741.335 C423.02,742.035 422.38,742.915 421.94,743.97 C419.83,749.365 417.37,754.535 414.47,759.44 C411.51,764.535 408.08,769.3 404.185,773.765 C402.78,775.345 401.11,776.575 399.175,777.475 C397.33,778.49 395.22,779.06 392.875,779.215 C390.825,779.335 388.745,779.195 386.605,778.72 C384.35,778.215 382.385,777.545 380.66,776.575 C378.165,775.19 375.915,773.61 373.98,771.83 C372.19,769.985 370.52,767.985 369.025,765.855 C368.355,764.8 367.565,763.865 366.65,763.095 C365.54,762.285 364.455,761.58 363.345,760.935 C359.795,759.035 356.105,757.065 352.41,755.065 C348.665,753.11 344.855,751.3 340.985,749.595 C339.085,751.475 337.03,753.02 334.605,754.255 C332.145,755.605 329.475,756.485 326.52,756.89 C325.52,757.065 324.55,756.995 323.585,756.715 C322.44,756.38 321.475,755.89 320.72,755.22 C318.435,752.865 316.235,750.42 314.18,747.855 C312.015,745.41 309.96,742.915 307.94,740.225 C307.5,739.61 307.41,738.87 307.62,738.08 C307.85,737.41 308.29,736.885 308.995,736.585 C317.785,732.665 325.99,728.06 333.55,722.72 C341.02,717.165 347.665,710.99 353.59,704.155 C354.205,703.54 354.73,702.835 355.225,702.1 C355.7,701.36 356.105,700.55 356.455,699.69 L356.05,697.825 C353.59,697.21 351.13,696.4 348.58,695.455" fill="#1A1919"/>
    <path d="M313.245,795.265 C316.41,795.265 319.575,795.385 322.74,795.56 C319.31,794.84 315.94,794.015 312.63,793.045 C312.105,792.925 311.63,792.75 311.14,792.575 C311.895,793.4 312.6,794.31 313.245,795.265 z M374.245,893.645 C373.015,893.645 371.87,893.49 370.78,893.155 L370.695,893.155 C369.85,893.155 368.23,892.45 366.685,891.22 C360.94,887.53 354.435,883.735 347.84,880.22 C341.075,876.72 334.13,873.435 327.22,870.55 C322.53,868.545 317.87,866.51 313.125,864.415 C310.26,863.095 307.5,861.765 304.81,860.37 C304.105,862.025 303.02,863.625 301.56,864.995 C300.065,866.575 298.095,867.86 295.845,868.685 C294.7,869.07 293.525,869.3 292.24,869.3 L290.535,869.16 C288.55,868.74 287.02,868.105 285.735,867.14 C284.245,866.225 282.625,864.925 281.255,863.5 C279.725,861.69 278.67,860.18 277.74,858.6 C276.565,856.54 275.805,854.27 275.595,851.935 C275.33,849.825 275.54,847.54 276.155,845.325 C277.475,841.125 278.795,837.025 280.11,832.915 C281.52,828.645 282.98,824.445 284.475,820.435 C285.475,817.57 286.355,814.58 287.11,811.645 C287.76,809.185 288.25,806.725 288.64,804.195 C288.11,803.595 287.405,802.61 286.845,801.54 C286.175,800.485 285.65,799.095 285.385,797.725 C284.945,796.265 284.825,794.505 284.91,792.66 C285.035,790.76 285.56,788.915 286.53,787.145 C287.845,784.61 290.275,782.835 293.26,782.255 L295.14,782.115 C296.25,782.115 297.305,782.255 298.36,782.59 C297.48,781.585 296.69,780.565 295.985,779.51 C295.405,778.985 294.525,777.665 293.965,776.35 C293.385,774.5 293.175,773.115 293.12,771.69 C293.385,769.3 294.175,767.72 295.46,766.49 C296.46,765.415 298.095,764.57 299.855,764.325 C300.115,764.185 301.26,764.01 302.435,764.01 L303.72,764.075 C305.16,764.22 306.565,764.66 307.85,765.275 C308.38,765.45 309.47,765.94 310.575,766.56 C311.575,767.12 312.51,767.7 313.39,768.26 C313.74,768.47 314.565,768.845 315.445,769.14 C316.235,769.425 317.115,769.635 318.045,769.7 C329.685,770.725 341.725,772.215 353.59,774.03 C365.105,775.7 376.79,777.755 388.275,780.215 C389.095,780.04 389.89,780.005 390.765,780.005 C391.79,780.005 392.845,780.095 393.93,780.29 C395.835,780.55 397.885,781.255 399.88,782.36 C404.625,785.135 408.255,788.585 410.805,792.73 C413.53,797.02 414.995,801.645 415.025,806.37 C414.995,808.13 414.73,809.68 414.29,811.26 C413.855,812.79 413.235,814.215 412.535,815.445 C411.39,817.395 409.635,818.82 407.435,819.5 C407.73,820.085 407.995,820.7 408.255,821.28 C410.335,825.815 411.215,830.54 410.805,835.235 C410.54,837.505 409.81,839.365 408.49,841.07 C407.73,842 406.91,842.795 406.03,843.41 C404.125,847.945 402.515,852.55 401.14,857.205 C399.645,862.36 398.325,867.81 397.27,873.345 C396.8,875.75 395.95,878.09 394.78,880.32 C393.755,882.43 392.35,884.595 390.56,886.53 C388.715,888.495 386.43,890.165 383.825,891.485 C380.8,892.77 377.935,893.42 375.035,893.63 L374.245,893.645" fill="#E6B725"/>
    <path d="M367.705,824.04 C368.09,824.655 368.44,825.29 368.85,826.005 C369.465,827.2 369.815,828.29 369.85,829.345 C370.165,830.49 370.2,831.595 370.08,832.825 C369.145,838.735 367.65,844.465 365.51,850.09 C363.61,855.715 361.06,861.075 357.775,866.155 L362.995,867.51 C364.54,860.055 366.565,852.745 369.025,845.605 C371.395,838.31 374.155,831.19 377.375,824.335 L366.3,822.05 C366.915,822.665 367.39,823.335 367.705,824.04 z M355.085,827.2 L355.225,825.92 L355.17,824.72 C355.05,823.985 354.96,823.28 355.05,822.475 C355.17,821.63 355.435,820.91 355.785,820.28 L354.205,819.925 L347.79,839.54 L351.655,839.77 L355.085,827.2 z M332.405,854.185 C327.805,853.78 323.23,853.78 318.66,854.075 C323.265,855.765 327.98,857.35 332.76,858.875 C337.595,860.46 342.34,861.955 346.995,863.415 C346.47,862.165 346.17,860.865 346.085,859.635 C345.91,858.47 345.995,857.26 346.38,855.94 C341.69,855.15 337.03,854.535 332.405,854.185 z M327.22,816.92 C325.905,816.635 324.64,816.305 323.41,815.935 C324.2,816.955 324.675,818.095 324.935,819.38 C325.29,820.47 325.465,821.665 325.34,822.86 C325.2,825.48 324.85,828.08 324.32,830.63 C323.795,833.11 323.09,835.64 322.18,838.135 L325.08,838.19 L331.145,817.395 C329.86,817.305 328.54,817.165 327.22,816.92 z M308.325,829.54 C307.005,835.85 305.305,841.97 303.315,848.03 L307.62,849.58 C307.15,848.49 306.92,847.33 307.06,846.01 C307.095,844.87 307.36,843.745 307.765,842.705 C309.205,838.485 310.4,834.27 311.365,830.07 C312.245,825.71 312.895,821.38 313.245,817.005 C313.3,816.285 313.425,815.515 313.65,814.7 C313.95,813.965 314.3,813.315 314.74,812.7 L311.4,810.66 C310.7,817.025 309.695,823.355 308.325,829.54 z M322.97,800.955 C327.22,801.165 331.495,801.38 335.8,801.66 L336.855,797.935 C337.12,796.97 337.12,796.02 336.89,795.055 C336.625,794.085 336.15,793.21 335.45,792.31 C331.79,791.73 328.24,791.115 324.675,790.465 C321.07,789.76 317.605,788.88 314.09,787.86 C313.215,787.63 312.42,787.3 311.665,786.86 C310.875,786.455 310.17,786.015 309.555,785.49 C307.765,784.08 306.13,782.675 304.545,781.325 C302.965,779.795 301.61,778.215 300.415,776.49 C299.765,775.785 299.27,775.05 298.975,774.31 C298.71,773.415 298.57,772.535 298.535,771.655 C298.57,771.145 298.8,770.725 299.185,770.405 C299.535,769.985 300.03,769.755 300.555,769.7 C301.38,769.425 302.26,769.37 303.105,769.425 C303.985,769.545 304.72,769.755 305.425,770.105 C306.27,770.425 307.15,770.795 307.975,771.285 C308.82,771.745 309.61,772.215 310.315,772.71 C311.365,773.325 312.51,773.82 313.685,774.24 C314.795,774.59 316.025,774.905 317.38,775.05 C329.295,776.14 341.075,777.545 352.8,779.39 C364.665,781.095 376.44,783.17 388.275,785.72 C389.71,785.3 391.265,785.28 392.935,785.56 C394.43,785.805 395.925,786.28 397.36,787.07 C401.14,789.34 404.125,792.155 406.205,795.56 C408.435,799.025 409.575,802.68 409.635,806.46 C409.635,807.515 409.46,808.655 409.105,809.8 C408.785,810.89 408.345,811.855 407.875,812.735 C407.29,813.665 406.5,814.28 405.415,814.46 C404.3,814.58 403.245,814.46 402.25,814.07 C399.115,812.63 396.215,810.855 393.46,808.835 C390.68,806.865 388.22,804.7 386.02,802.33 C380.975,801.01 375.88,799.87 370.73,798.815 C365.685,797.725 360.585,796.705 355.435,795.735 L359.005,799.43 C359.39,799.87 359.705,800.395 359.915,800.87 C360.095,801.45 360.095,801.98 359.97,802.45 L359.215,805.075 C363.84,805.88 368.355,806.81 372.835,807.885 C377.375,808.955 381.855,810.15 386.285,811.4 C387.78,810.855 389.42,810.785 391.205,811.15 C392.875,811.56 394.34,812.24 395.66,813.195 C399.115,816.25 401.725,819.645 403.335,823.425 C405.065,827.235 405.765,831.015 405.445,834.815 C405.325,835.905 404.915,836.89 404.215,837.77 C403.57,838.61 402.72,839.245 401.725,839.685 C399.525,844.935 397.595,850.23 395.95,855.66 C394.37,861.06 393.11,866.61 391.995,872.325 C391.615,874.19 390.94,876.015 389.975,877.825 C389.095,879.69 388.015,881.345 386.605,882.87 C385.2,884.365 383.47,885.65 381.415,886.67 C379.255,887.585 376.97,888.11 374.685,888.25 C373.77,888.285 372.98,888.22 372.275,888.005 C371.485,887.935 370.78,887.615 370.025,887.02 C363.75,882.96 357.19,879.09 350.335,875.455 C343.445,871.85 336.415,868.545 329.295,865.61 C324.675,863.61 320.015,861.565 315.27,859.48 C310.7,857.37 306.215,855.15 301.82,852.745 L300.15,857.35 C299.71,858.845 298.975,860.095 297.865,861.075 C296.775,862.235 295.46,863.06 294,863.61 C293.21,863.885 292.33,863.975 291.33,863.82 C290.395,863.625 289.66,863.325 288.99,862.83 C287.495,861.885 286.175,860.865 285.12,859.755 C284.065,858.525 283.19,857.205 282.395,855.89 C281.605,854.48 281.135,852.99 280.955,851.405 C280.78,849.88 280.905,848.35 281.345,846.8 C282.625,842.76 283.89,838.66 285.265,834.585 C286.615,830.365 288.075,826.27 289.57,822.315 C290.625,819.17 291.54,816.06 292.33,813 C293.12,809.835 293.735,806.635 294.175,803.42 L293.965,802.35 L293.44,801.45 C292.645,800.68 292.065,799.9 291.625,799.025 C291.15,798.23 290.8,797.405 290.625,796.56 C290.31,795.42 290.22,794.275 290.31,793.045 C290.395,791.89 290.715,790.76 291.275,789.69 C291.855,788.53 292.855,787.825 294.23,787.565 C295.725,787.335 297.13,787.65 298.445,788.53 C300.94,790.06 303.195,791.89 305.16,794.015 C307.095,795.945 308.855,798.145 310.315,800.66 C314.565,800.605 318.75,800.695 322.97,800.955" fill="#1A1919"/>
  </g>
</svg>
